<?xml version="1.0" encoding="utf-8"?>
<svg width="630px" height="183px" viewbox="0 0 630 183" version="1.1" xmlns:xlink="http://www.w3.org/1999/xlink" xmlns="http://www.w3.org/2000/svg">
  <defs>
    <path d="M0 0L183 0L183 183L0 183L0 0L0 0Z" id="path_1" />
    <clipPath id="mask_1">
      <use xlink:href="#path_1" />
    </clipPath>
  </defs>
  <g id="logo">
    <g id="Spotify-icon">
      <path d="M0 0L183 0L183 183L0 183L0 0L0 0Z" id="Background" fill="none" fill-rule="evenodd" stroke="none" />
      <g id="Mask-group">
        <path d="M0 0L183 0L183 183L0 183L0 0L0 0Z" id="path_1" fill="none" fill-rule="evenodd" stroke="none" />
        <g clip-path="url(#mask_1)">
          <g id="Group" transform="translate(9.149994 25.62001)">
            <path d="M143.133 78.1593C145.21 74.2156 146.4 69.7321 146.4 64.965C146.4 52.8486 138.789 42.5347 128.098 38.4703C128.098 38.4575 128.1 38.4446 128.1 38.43C128.1 17.2057 110.894 0 89.67 0C71.7653 0 56.7648 12.2628 52.4972 28.8353C49.7961 27.9478 46.9175 27.45 43.92 27.45C29.8436 27.45 18.2579 38.0512 16.6713 51.7012C7.14798 53.716 0 62.1633 0 72.285C0 83.9073 9.42267 93.33 21.045 93.33C21.3689 93.33 21.6892 93.308 22.0076 93.2897C22.0003 93.61 21.96 93.9229 21.96 94.245C21.96 114.964 38.7557 131.76 59.475 131.76C71.2547 131.76 81.7552 126.321 88.6342 117.826C92.62 121.898 98.1612 124.44 104.31 124.44C112.819 124.44 120.183 119.59 123.829 112.512C125.754 113.125 127.802 113.46 129.93 113.46C141.047 113.46 150.06 104.447 150.06 93.33C150.06 87.2709 147.37 81.8504 143.133 78.1593L143.133 78.1593L143.133 78.1593Z" transform="translate(7.319992 0)" id="Shape" fill="#C7EDE6" fill-rule="evenodd" stroke="none" />
            <path d="M36.6 31.11L36.6 32.025L42.09 32.025L42.09 31.11C42.09 31.11 49.8528 31.11 52.155 31.11C56.7025 31.11 60.39 27.4226 60.39 22.875C60.39 18.6056 57.1289 15.1359 52.9693 14.7223C53.0096 14.3911 53.07 14.0672 53.07 13.725C53.07 9.17745 49.3825 5.49 44.835 5.49C42.2034 5.49 39.8885 6.74538 38.3806 8.66688C38.1244 3.843 34.1679 0 29.28 0C24.2274 0 20.13 4.09737 20.13 9.15C20.13 9.96618 20.2709 10.7421 20.4722 11.4961C19.2973 10.0742 17.5424 9.15 15.555 9.15C12.2958 9.15 9.63678 11.593 9.23235 14.7407C8.90112 14.7004 8.57721 14.64 8.235 14.64C3.68745 14.64 0 18.3275 0 22.875C0 27.4226 3.68745 31.11 8.235 31.11C12.7825 31.11 25.62 31.11 25.62 31.11L36.6 31.11L36.6 31.11L36.6 31.11Z" transform="translate(94.244995 53.985)" id="Shape#1" fill="#FDFCEF" fill-rule="evenodd" stroke="none" />
            <path d="M30.195 0C24.6446 0 20.13 4.51461 20.13 10.065C20.13 10.0943 20.13 10.1217 20.13 10.151C19.0283 9.50136 17.7693 9.15 16.47 9.15C13.1193 9.15 10.2279 11.4576 9.40987 14.6491C9.32385 14.6437 9.23784 14.64 9.14999 14.64C4.10469 14.64 0 18.7447 0 23.79C0 28.8353 4.10469 32.94 9.14999 32.94L37.515 32.94C38.0201 32.94 38.43 32.5301 38.43 32.025C38.43 31.5199 38.0201 31.11 37.515 31.11L9.14999 31.11C5.11302 31.11 1.83 27.827 1.83 23.79C1.83 19.753 5.11302 16.47 9.14999 16.47C9.36411 16.47 9.57089 16.5011 9.7777 16.5286L10.0357 16.5633C10.0741 16.5688 10.1107 16.5707 10.1492 16.5707C10.5994 16.5707 10.9946 16.2321 11.055 15.7709C11.4046 13.0387 13.7323 10.98 16.47 10.98C18.0896 10.98 19.6231 11.7138 20.6808 12.993C20.8602 13.2089 21.1219 13.3261 21.3872 13.3261C21.53 13.3261 21.6727 13.2931 21.8045 13.2236C22.1869 13.0278 22.3791 12.5904 22.2693 12.175C22.0588 11.3789 21.96 10.7092 21.96 10.065C21.96 5.52477 25.6548 1.83 30.195 1.83C34.5522 1.83 38.15 5.25576 38.3824 9.63129C38.4025 10.0119 38.6569 10.3395 39.0211 10.4548C39.1126 10.4841 39.2059 10.4987 39.2992 10.4987C39.5737 10.4987 39.8409 10.3724 40.0166 10.1473C41.4275 8.35029 43.5156 7.32 45.75 7.32C49.787 7.32 53.07 10.603 53.07 14.64C53.07 14.8541 53.0389 15.0609 53.0114 15.2677L52.9767 15.5257C52.9474 15.7709 53.0169 16.0162 53.1707 16.2083C53.3244 16.4005 53.5495 16.5231 53.7929 16.5469C57.5553 16.922 60.39 20.0367 60.39 23.79C60.39 27.827 57.107 31.11 53.07 31.11L43.005 31.11C42.4999 31.11 42.09 31.5199 42.09 32.025C42.09 32.5301 42.4999 32.94 43.005 32.94L53.07 32.94C58.1153 32.94 62.22 28.8353 62.22 23.79C62.22 19.4035 59.1291 15.7142 54.8945 14.8651C54.8982 14.7901 54.9 14.715 54.9 14.64C54.9 9.59469 50.7953 5.49 45.75 5.49C43.5979 5.49 41.5538 6.25128 39.9251 7.62012C38.8308 3.2208 34.8706 0 30.195 0L30.195 0L30.195 0L30.195 0Z" transform="translate(93.33002 53.06996)" id="Shape#2" fill="#472B29" fill-rule="evenodd" stroke="none" />
            <path d="M18.2662 0C15.6987 0 13.4917 1.82817 12.9354 4.28403C12.2638 3.87777 11.4971 3.66 10.7175 3.66C8.51781 3.66 6.69513 5.30151 6.41148 7.44444C6.03999 7.36026 5.6868 7.32 5.34093 7.32C2.54286 7.32 0.196793 9.51601 0.000991821 12.3196C-0.0154877 12.5721 0.174835 12.7917 0.425552 12.81C0.436523 12.81 0.44751 12.81 0.458496 12.81C0.696396 12.81 0.89769 12.6252 0.914169 12.3854C1.07703 10.0595 3.02049 8.235 5.34093 8.235C5.75999 8.235 6.20103 8.31186 6.69147 8.46741C6.73174 8.48022 6.77382 8.48572 6.81409 8.48572C6.91473 8.48572 7.0154 8.44911 7.09956 8.38689C7.21667 8.3027 7.28622 8.15266 7.28622 8.00626C7.28622 6.11403 8.82526 4.575 10.7175 4.575C11.5355 4.575 12.337 4.88244 12.9702 5.44059C13.0562 5.51562 13.1642 5.55588 13.2722 5.55588C13.3307 5.55588 13.3875 5.5449 13.4424 5.52111C13.6034 5.45706 13.7132 5.307 13.726 5.13315C13.9163 2.76696 15.9092 0.915001 18.2662 0.915001C18.6469 0.915001 19.044 0.977219 19.5143 1.11081C19.5564 1.12362 19.6003 1.1291 19.6424 1.1291C19.8418 1.1291 20.0212 0.995514 20.0797 0.796043C20.1493 0.552658 20.0084 0.300117 19.765 0.230576C19.2123 0.073204 18.7347 0 18.2662 0L18.2662 0L18.2662 0L18.2662 0ZM43.6721 2.74501C41.2455 2.74501 39.0825 4.38652 38.4127 6.73807C38.3431 6.98146 38.4841 7.234 38.7274 7.30354C38.7714 7.31453 38.8134 7.32001 38.8537 7.32001C39.0532 7.32001 39.2362 7.18826 39.2929 6.98695C39.8511 5.02885 41.6518 3.66001 43.6721 3.66001C43.8862 3.66001 44.093 3.68563 44.298 3.71308C44.3199 3.71674 44.3401 3.71857 44.362 3.71857C44.5835 3.71857 44.7811 3.55021 44.8122 3.32146C44.847 3.07075 44.6713 2.84017 44.4206 2.80723C44.1753 2.77429 43.9265 2.74501 43.6721 2.74501L43.6721 2.74501L43.6721 2.74501L43.6721 2.74501Z" transform="translate(102.51376 65.87999)" id="Shape#3" fill="#472B29" fill-rule="evenodd" stroke="none" />
            <path d="M19.215 9.15001L0.915001 9.15001C0.40992 9.15001 0 8.74009 0 8.23501C0 7.72993 0.40992 7.32001 0.915001 7.32001L19.215 7.32001C19.7201 7.32001 20.13 7.72993 20.13 8.23501C20.13 8.74009 19.7219 9.15001 19.215 9.15001L19.215 9.15001L19.215 9.15001ZM24.705 9.15001L22.875 9.15001C22.3699 9.15001 21.96 8.74009 21.96 8.23501C21.96 7.72993 22.3699 7.32001 22.875 7.32001L24.705 7.32001C25.2101 7.32001 25.62 7.72993 25.62 8.23501C25.62 8.74009 25.2119 9.15001 24.705 9.15001L24.705 9.15001L24.705 9.15001ZM33.8385 12.81L17.385 12.81C16.8799 12.81 16.47 12.4001 16.47 11.895C16.47 11.3899 16.8799 10.98 17.385 10.98L33.8385 10.98C34.3436 10.98 34.7535 11.3899 34.7535 11.895C34.7535 12.4001 34.3436 12.81 33.8385 12.81L33.8385 12.81L33.8385 12.81ZM13.725 12.81L11.895 12.81C11.3899 12.81 10.98 12.4001 10.98 11.895C10.98 11.3899 11.3899 10.98 11.895 10.98L13.725 10.98C14.2301 10.98 14.64 11.3899 14.64 11.895C14.64 12.4001 14.2319 12.81 13.725 12.81L13.725 12.81L13.725 12.81ZM8.235 12.81L4.575 12.81C4.06992 12.81 3.66 12.4001 3.66 11.895C3.66 11.3899 4.06992 10.98 4.575 10.98L8.235 10.98C8.74008 10.98 9.15 11.3899 9.15 11.895C9.15 12.4001 8.74191 12.81 8.235 12.81L8.235 12.81L8.235 12.81ZM19.215 16.47L15.555 16.47C15.0499 16.47 14.64 16.0601 14.64 15.555C14.64 15.0499 15.0499 14.64 15.555 14.64L19.215 14.64C19.7201 14.64 20.13 15.0499 20.13 15.555C20.13 16.0601 19.7201 16.47 19.215 16.47L19.215 16.47L19.215 16.47ZM24.705 0C24.3811 0 23.1989 0 22.875 0C22.3699 0 21.96 0.40992 21.96 0.915001C21.96 1.42008 22.3699 1.83 22.875 1.83C23.1989 1.83 24.3811 1.83 24.705 1.83C25.2101 1.83 25.62 1.42008 25.62 0.915001C25.62 0.40992 25.2101 0 24.705 0L24.705 0L24.705 0ZM24.705 3.66C24.3811 3.66 15.8789 3.66 15.555 3.66C15.0499 3.66 14.64 4.06992 14.64 4.575C14.64 5.08009 15.0499 5.49 15.555 5.49C15.8789 5.49 24.3811 5.49 24.705 5.49C25.2101 5.49 25.62 5.08009 25.62 4.575C25.62 4.06992 25.2101 3.66 24.705 3.66L24.705 3.66L24.705 3.66ZM33.855 7.32001C33.5311 7.32001 28.6889 7.32001 28.365 7.32001C27.8599 7.32001 27.45 7.72993 27.45 8.23501C27.45 8.74009 27.8599 9.15001 28.365 9.15001C28.6889 9.15001 33.5311 9.15001 33.855 9.15001C34.3601 9.15001 34.77 8.74009 34.77 8.23501C34.77 7.72993 34.3601 7.32001 33.855 7.32001L33.855 7.32001L33.855 7.32001Z" transform="translate(0 58.559982)" id="Shape#4" fill="#FFFFFF" fill-rule="evenodd" stroke="none" />
            <g id="Group" transform="translate(104.31003 12.809982)">
              <path d="M19.215 5.49L0.914993 5.49C0.409912 5.49 0 5.08008 0 4.575C0 4.06993 0.409912 3.66 0.914993 3.66L19.215 3.66C19.7201 3.66 20.13 4.06993 20.13 4.575C20.13 5.08008 19.7201 5.49 19.215 5.49L19.215 5.49L19.215 5.49ZM26.535 5.49L22.875 5.49C22.3699 5.49 21.96 5.08008 21.96 4.575C21.96 4.06993 22.3699 3.66 22.875 3.66L26.535 3.66C27.0401 3.66 27.45 4.06993 27.45 4.575C27.45 5.08008 27.0401 5.49 26.535 5.49L26.535 5.49L26.535 5.49ZM35.685 9.15001L17.385 9.15001C16.8799 9.15001 16.47 8.74009 16.47 8.23501C16.47 7.72993 16.8799 7.32001 17.385 7.32001L35.685 7.32001C36.1901 7.32001 36.6 7.72993 36.6 8.23501C36.6 8.74009 36.1919 9.15001 35.685 9.15001L35.685 9.15001L35.685 9.15001ZM13.725 9.15001L11.895 9.15001C11.3899 9.15001 10.98 8.74009 10.98 8.23501C10.98 7.72993 11.3899 7.32001 11.895 7.32001L13.725 7.32001C14.2301 7.32001 14.64 7.72993 14.64 8.23501C14.64 8.74009 14.2301 9.15001 13.725 9.15001L13.725 9.15001L13.725 9.15001ZM8.18007 9.15001L4.57497 9.15001C4.06989 9.15001 3.65997 8.74009 3.65997 8.23501C3.65997 7.72993 4.06989 7.32001 4.57497 7.32001L8.18007 7.32001C8.68517 7.32001 9.09506 7.72993 9.09506 8.23501C9.09506 8.74009 8.68517 9.15001 8.18007 9.15001L8.18007 9.15001L8.18007 9.15001ZM24.705 1.83L15.555 1.83C15.0499 1.83 14.64 1.42008 14.64 0.915001C14.64 0.40992 15.0499 0 15.555 0L24.705 0C25.2101 0 25.62 0.40992 25.62 0.915001C25.62 1.42008 25.2119 1.83 24.705 1.83L24.705 1.83L24.705 1.83ZM19.215 12.81L15.555 12.81C15.0499 12.81 14.64 12.4001 14.64 11.895C14.64 11.3899 15.0499 10.98 15.555 10.98L19.215 10.98C19.7201 10.98 20.13 11.3899 20.13 11.895C20.13 12.4001 19.7201 12.81 19.215 12.81L19.215 12.81L19.215 12.81Z" id="Shape#5" fill="#FFFFFF" fill-rule="evenodd" stroke="none" />
            </g>
            <g id="Group#1" transform="translate(42.181473 22.051437)">
              <path d="M42.5475 0C19.0492 0 0 19.0492 0 42.5475C0 66.0458 19.0492 85.095 42.5475 85.095C66.0458 85.095 85.095 66.0458 85.095 42.5475C85.095 19.0492 66.0458 0 42.5475 0L42.5475 0L42.5475 0Z" transform="translate(1.2810059 1.2810059)" id="Shape#6" fill="#60BE92" fill-rule="evenodd" stroke="none" />
              <path d="M43.8285 87.657C19.6615 87.657 0 67.9955 0 43.8285C0 19.6615 19.6615 0 43.8285 0C67.9955 0 87.657 19.6615 87.657 43.8285C87.657 67.9955 67.9955 87.657 43.8285 87.657L43.8285 87.657L43.8285 87.657ZM43.8285 2.56198C21.0743 2.56198 2.562 21.0724 2.562 43.8285C2.562 66.5845 21.0743 85.095 43.8285 85.095C66.5827 85.095 85.095 66.5845 85.095 43.8285C85.095 21.0724 66.5827 2.56198 43.8285 2.56198L43.8285 2.56198L43.8285 2.56198Z" id="Shape#7" fill="#472B29" fill-rule="evenodd" stroke="none" />
            </g>
            <g id="Group#2" transform="translate(116.01886 47.63449)">
              <path d="M4.07121 9.07172C3.6796 9.07172 3.31725 8.81917 3.19649 8.42572C3.04276 7.92247 2.87624 7.42288 2.70055 6.93245C2.0143 5.01461 1.14688 3.14618 0.123917 1.37657C-0.130463 0.939201 0.0196075 0.379227 0.45697 0.126678C0.896164 -0.133179 1.45432 0.020546 1.70686 0.461571C2.78471 2.32634 3.69789 4.29542 4.42075 6.31208C4.60741 6.82997 4.78127 7.35701 4.94597 7.88588C5.09421 8.37083 4.82335 8.8814 4.34023 9.02963C4.25056 9.05891 4.15906 9.07172 4.07121 9.07172L4.07121 9.07172L4.07121 9.07172Z" id="Shape#8" fill="#472B29" fill-rule="evenodd" stroke="none" />
            </g>
            <g id="Group#3" transform="translate(49.345947 29.433746)">
              <path d="M36.664 73.1103C16.448 73.1103 0 56.7117 0 36.5542C0 16.3986 16.4462 0 36.664 0C47.1573 0 57.1674 4.49631 64.1269 12.3342C64.6521 12.9253 65.159 13.5365 65.6476 14.1642C65.9569 14.5631 65.8855 15.1378 65.4884 15.447C65.0894 15.76 64.5148 15.6849 64.2037 15.286C63.7407 14.6912 63.2594 14.1111 62.7598 13.5493C56.1462 6.10121 46.6357 1.83 36.6659 1.83C17.4582 1.83 1.83184 17.407 1.83184 36.5542C1.83184 55.7015 17.4564 71.2803 36.664 71.2803C55.8717 71.2803 71.4981 55.7015 71.4981 36.5542C71.4981 34.8066 71.3663 33.0553 71.1083 31.3461C71.0333 30.8465 71.3773 30.3798 71.8769 30.3048C72.3802 30.2298 72.8431 30.572 72.9182 31.0716C73.1909 32.8705 73.3281 34.7151 73.3281 36.5542C73.3281 56.7117 56.8801 73.1103 36.664 73.1103L36.664 73.1103L36.664 73.1103Z" id="Shape#9" fill="#472B29" fill-rule="evenodd" stroke="none" />
            </g>
            <g id="Group#4" transform="translate(23.789993 84.17998)">
              <path d="M32.94 23.79C32.94 23.79 35.8076 23.79 39.345 23.79C42.8824 23.79 45.75 20.9224 45.75 17.385C45.75 14.1258 43.3069 11.4668 40.1593 11.0623C40.2106 10.7348 40.26 10.4072 40.26 10.065C40.26 6.5276 37.3924 3.66 33.855 3.66C31.9664 3.66 30.2865 4.49265 29.1153 5.79195C28.4126 2.48331 25.4791 0 21.96 0C17.9175 0 14.64 3.27753 14.64 7.32001C14.64 7.66953 14.6949 8.00443 14.7425 8.34114C13.9592 7.71161 12.9784 7.32001 11.895 7.32001C9.64776 7.32001 7.78665 8.94321 7.40235 11.0807C7.07478 11.0294 6.74721 10.98 6.405 10.98C2.86761 10.98 0 13.8476 0 17.385C0 20.9224 2.86761 23.79 6.405 23.79C9.94239 23.79 20.13 23.79 20.13 23.79L20.13 24.705L32.94 24.705L32.94 23.79L32.94 23.79L32.94 23.79Z" transform="translate(0.91500854 0.91500854)" id="Shape#10" fill="#FDFCEF" fill-rule="evenodd" stroke="none" />
              <path d="M13.2675 4.51645C13.015 4.51645 12.81 4.31149 12.81 4.05894C12.81 1.82086 14.6308 0 16.8689 0C16.9312 0.0164795 18.2176 -0.00183105 19.1455 0.248886C19.3888 0.314774 19.5334 0.56546 19.4675 0.808868C19.4016 1.05409 19.1509 1.19865 18.9075 1.13095C18.095 0.911346 16.8946 0.911346 16.8708 0.915009C15.1359 0.915009 13.725 2.32594 13.725 4.05896C13.725 4.31149 13.52 4.51645 13.2675 4.51645L13.2675 4.51645L13.2675 4.51645ZM0.915001 11.8365C0.40966 11.8365 0 12.2461 0 12.7515C0 13.2568 0.40966 13.6665 0.915001 13.6665C1.42034 13.6665 1.83 13.2568 1.83 12.7515C1.83 12.2461 1.42034 11.8365 0.915001 11.8365L0.915001 11.8365L0.915001 11.8365Z" transform="translate(23.790009 11.953552)" id="Shape#11" fill="#472B29" fill-rule="evenodd" stroke="none" />
              <path d="M40.26 25.62L33.855 25.62C33.3499 25.62 32.94 25.2101 32.94 24.705C32.94 24.1999 33.3499 23.79 33.855 23.79L40.26 23.79C43.2868 23.79 45.75 21.3268 45.75 18.3C45.75 15.5623 43.6912 13.2346 40.9591 12.885C40.7138 12.8521 40.4924 12.724 40.3442 12.5264C40.196 12.3287 40.1337 12.0798 40.1722 11.8364C40.2142 11.5546 40.26 11.2728 40.26 10.98C40.26 7.95319 37.7968 5.49001 34.77 5.49001C33.2145 5.49001 31.7725 6.13965 30.7092 7.32001C30.4805 7.57437 30.1218 7.68234 29.7942 7.59085C29.4612 7.50117 29.2068 7.23399 29.1354 6.89728C28.5114 3.96194 25.878 1.83 22.875 1.83C19.3431 1.83 16.47 4.70309 16.47 8.235C16.47 8.49669 16.5084 8.74741 16.545 8.99994C16.5981 9.37144 16.4297 9.80148 16.1022 9.98814C15.7746 10.1748 15.3775 10.2041 15.0847 9.96983C14.4167 9.43365 13.6317 9.14999 12.81 9.14999C11.0422 9.14999 9.53064 10.4145 9.21771 12.1585C9.12987 12.6471 8.67603 12.9747 8.17644 12.8997C7.89462 12.8558 7.6128 12.81 7.32 12.81C4.29318 12.81 1.83 15.2732 1.83 18.3C1.83 21.3268 4.29318 23.79 7.32 23.79L21.045 23.79C21.5501 23.79 21.96 24.1999 21.96 24.705C21.96 25.2101 21.5501 25.62 21.045 25.62L7.32 25.62C3.28302 25.62 0 22.337 0 18.3C0 14.263 3.28302 10.98 7.32 10.98C7.42797 10.98 7.53228 10.9837 7.63842 10.991C8.39604 8.8206 10.4511 7.32001 12.81 7.32001C13.4487 7.32001 14.0709 7.43162 14.6601 7.6494C14.9621 3.38 18.5306 0 22.875 0C26.2257 0 29.2178 2.06241 30.475 5.07642C31.7194 4.16508 33.2236 3.66 34.77 3.66C38.807 3.66 42.09 6.94302 42.09 10.98C42.09 11.0678 42.0882 11.1539 42.0827 11.2399C45.2724 12.0597 47.58 14.9493 47.58 18.3C47.58 22.337 44.297 25.62 40.26 25.62L40.26 25.62L40.26 25.62Z" id="Shape#12" fill="#472B29" fill-rule="evenodd" stroke="none" />
              <path d="M2.745 0C2.45403 0 1.20597 0 0.915001 0C0.40992 0 0 0.409912 0 0.914993C0 1.42007 0.40992 1.83 0.915001 1.83C1.20597 1.83 2.45403 1.83 2.745 1.83C3.25008 1.83 3.66 1.42007 3.66 0.914993C3.66 0.409912 3.25008 0 2.745 0L2.745 0L2.745 0Z" transform="translate(27.449997 23.790009)" id="Shape#13" fill="#472B29" fill-rule="evenodd" stroke="none" />
            </g>
            <g id="Group#5" transform="translate(58.957474 48.62433)">
              <path d="M52.1986 14.9956C51.5288 14.9956 50.848 14.8327 50.2185 14.4869C31.1298 4.02294 5.33777 9.94482 5.07974 10.0052C2.85263 10.5286 0.634666 9.15425 0.11129 6.9363C-0.412086 4.7165 0.960411 2.49305 3.1802 1.96785C4.36238 1.68786 32.3449 -4.73178 54.1878 7.24191C56.188 8.33807 56.92 10.8488 55.8238 12.8472C55.0735 14.2215 53.6571 14.9956 52.1986 14.9956L52.1986 14.9956L52.1986 14.9956ZM47.6199 27.672C47.0453 27.672 46.4634 27.522 45.9345 27.2072C28.5147 16.8476 7.12204 22.6139 6.90793 22.6725C5.14747 23.1538 3.33028 22.1326 2.83984 20.3776C2.3494 18.6227 3.37054 16.8037 5.12551 16.3096C6.10822 16.0332 29.4114 9.6941 49.3109 21.5287C50.8792 22.4602 51.3934 24.4878 50.4601 26.0561C49.8452 27.0956 48.7472 27.672 47.6199 27.672L47.6199 27.672L47.6199 27.672ZM43.4402 38.6173C43.0102 38.6173 42.5728 38.5056 42.1757 38.2696C26.5768 28.9933 7.57588 34.1667 7.38373 34.2216C6.07162 34.5949 4.69912 33.8227 4.32946 32.5051C3.9598 31.1875 4.7284 29.8186 6.046 29.4508C6.9061 29.2111 27.3015 23.6589 44.7084 34.013C45.8851 34.7121 46.2712 36.2328 45.5722 37.4076C45.1092 38.1854 44.2857 38.6173 43.4402 38.6173L43.4402 38.6173L43.4402 38.6173Z" id="Shape#14" fill="#FFFFFF" fill-rule="evenodd" stroke="none" />
            </g>
          </g>
        </g>
      </g>
    </g>
    <g id="Spotipy2" transform="translate(185.168 22.704002)">
      <path d="M0 103.68L0 104.976C0 107.952 2.92801 109.872 8.784 110.736C10.704 111.024 14.64 111.168 20.592 111.168L24.48 111.168C25.536 111.168 26.304 111.12 26.784 111.024C28.8 110.64 30.672 109.632 32.4 108C38.64 101.76 43.296 97.056 46.368 93.888C50.016 90.144 51.84 86.544 51.84 83.088L51.84 58.32C51.84 55.344 50.304 52.752 47.232 50.544C45.024 49.008 42.24 48 38.88 47.52C38.688 47.52 35.664 47.328 29.808 46.944L19.44 46.3703C15.12 45.4148 12.96 42.9293 12.96 38.9138L12.96 18.405C12.96 15.345 14.736 13.3373 18.288 12.3818C19.728 11.9993 22.608 11.808 26.928 11.808C32.208 11.808 35.616 12.0923 37.152 12.6608C39.168 13.4198 41.904 15.6953 45.36 19.4873L47.088 22.0478C47.664 22.9013 48.528 23.328 49.68 23.328L49.68 2.16C49.68 0.719997 47.856 0 44.208 0L25.92 0C23.616 0 19.608 2.424 13.896 7.272C8.18399 12.12 4.632 15.792 3.24001 18.288C1.84799 20.784 1.104 23.712 1.008 27.072C0.912003 27.456 0.863998 30.48 0.863998 36.144C0.863998 42.864 1.34399 47.808 2.304 50.976C3.84 56.16 5.808 59.232 8.20801 60.192C10.032 60.768 11.856 61.296 13.68 61.776C16.176 62.544 17.712 63.36 18.288 64.224L36.72 64.224C39.6 64.224 41.04 69.264 41.04 79.344C41.04 84.816 40.896 88.128 40.608 89.28C39.84 92.352 37.824 94.608 34.56 96.048C33.792 96.144 32.952 96.36 32.04 96.696C31.128 97.032 30.528 97.536 30.24 98.208L28.368 98.208C27.888 98.304 27.456 98.352 27.072 98.352L26.352 98.352C23.76 98.352 20.688 97.824 17.136 96.768C13.2 95.616 10.368 94.32 8.64 92.88C8.35201 92.784 7.34399 91.344 5.616 88.56C4.17599 86.256 3.024 85.104 2.16 85.104C1.584 85.104 1.2 85.152 1.008 85.248L0.432007 94.464C0.143997 99.072 0 102.144 0 103.68L0 103.68ZM442.368 85.536L444.384 85.968L444.384 86.832L444.096 88.272C442.368 96.912 441.504 103.44 441.504 107.856L441.504 108.576C441.504 110.4 440.784 111.312 439.344 111.312L432.144 111.312C428.976 111.216 426.576 111.168 424.944 111.168L396.432 111.168C393.072 111.168 389.76 111.456 386.496 112.032L395.424 99.936C404.928 86.976 411.792 76.8 416.016 69.408C423.024 56.832 426.528 46.512 426.528 38.448C426.528 32.976 425.28 28.56 422.784 25.2C420 21.36 415.968 19.44 410.688 19.44C406.464 19.44 401.04 23.04 394.416 30.24L392.256 26.784C396.384 20.064 400.224 15.168 403.776 12.096C408.576 7.776 413.52 5.664 418.608 5.76C425.328 5.856 430.512 8.592 434.16 13.968C437.328 18.672 438.912 24.528 438.912 31.536C438.912 41.712 434.448 53.712 425.52 67.536C422.64 72.048 419.04 76.992 414.72 82.368C414.624 82.464 410.736 87.12 403.056 96.336C401.616 98.064 400.752 99.072 400.464 99.36C404.304 99.552 407.808 99.648 410.976 99.648L421.344 99.648C426.528 99.648 430.944 98.592 434.592 96.48C438.912 93.984 441.504 90.336 442.368 85.536L442.368 85.536ZM249.12 15.696L249.984 14.976C251.424 17.376 254.016 20.16 257.76 23.328C254.496 26.592 251.808 30.096 249.696 33.84C247.872 30.357 245.328 26.9715 242.064 23.6835C245.328 20.394 247.68 17.4915 249.12 14.976L249.12 15.696L249.12 15.696ZM219.6 101.376C223.632 101.376 227.616 99.408 231.552 95.472L232.704 99.504L232.704 100.08C230.784 102 227.376 104.496 222.48 107.568C217.296 110.736 213.552 112.32 211.248 112.32C204.912 112.32 200.784 110.352 198.864 106.416C197.232 103.248 196.416 97.392 196.416 88.848L196.56 74.304C196.56 67.776 196.704 60.192 196.992 51.552L185.328 51.984L185.616 49.68C188.784 47.952 192.648 45.24 197.208 41.544C201.768 37.848 204.864 34.752 206.496 32.256L207.648 32.256C207.84 32.256 208.272 32.352 208.944 32.544C208.272 34.752 207.792 37.872 207.504 41.904C211.152 42.288 215.616 42.48 220.896 42.48C225.888 42.48 229.632 42.048 232.128 41.184C231.168 42.627 230.304 43.734 229.536 44.505C228.576 46.14 226.752 47.7758 224.064 49.4123C221.088 49.7963 218.736 50.085 217.008 50.2785C213.168 50.856 209.952 51.1448 207.36 51.1448L207.36 53.0213C207.36 53.1173 207.312 53.9828 207.216 55.6178C206.928 60.5258 206.784 66.7809 206.784 74.383C206.784 86.1237 207.792 93.7743 209.808 97.335C211.248 100.029 214.512 101.376 219.6 101.376L219.6 101.376ZM377.568 42.192C375.84 42.192 372.912 41.952 368.784 41.472C370.608 44.064 371.52 47.472 371.52 51.696C371.52 55.824 370.368 62.4 368.064 71.424C365.664 80.736 362.88 88.944 359.712 96.048C357.408 89.904 354.192 80.208 350.064 66.96L346.608 56.016C345.552 52.848 344.112 48 342.288 41.472C340.272 41.472 338.688 41.568 337.536 41.76C335.808 42.048 334.32 42.192 333.072 42.192C331.824 42.192 330.48 42.048 329.04 41.76L327.888 41.76C327.408 41.568 327.024 41.472 326.736 41.472C327.216 42.6255 329.664 49.0193 334.08 60.6533C337.824 70.7484 341.232 80.2187 344.304 89.064C345.84 93.7753 347.28 98.102 348.624 102.044L351.648 111.706C349.248 116.995 346.272 122.139 342.72 127.139C339.456 131.465 336.72 134.301 334.512 135.648C336.432 136.128 338.64 136.368 341.136 136.368C345.648 136.368 348.288 135.936 349.056 135.072C350.208 133.728 351.888 130.032 354.096 123.984C354.768 122.256 355.824 119.424 357.264 115.488L361.584 104.544C361.872 103.968 362.304 102.96 362.88 101.52L368.928 87.552C376.224 70.848 381.84 55.104 385.776 40.32L383.904 42.048C383.136 42.144 382.032 42.192 380.592 42.192L377.568 42.192L377.568 42.192ZM111.839 48.24C116.96 53.712 119.52 61.584 119.52 71.856C119.52 78.288 118.752 83.76 117.216 88.272C113.28 99.312 105.744 106.512 94.608 109.872C91.248 110.928 87.408 111.456 83.088 111.456C79.92 111.456 77.376 111.36 75.456 111.168C75.456 125.856 76.416 133.632 78.336 134.496L77.76 135.36C76.512 135.168 75.168 135.072 73.728 135.072L70.416 135.072C67.728 135.072 65.184 135.504 62.784 136.368C63.168 135.024 63.456 133.44 63.648 131.616C64.032 127.776 64.224 120.816 64.224 110.736L64.224 89.712C64.224 75.984 64.176 67.824 64.08 65.232C63.696 53.136 62.544 45.312 60.624 41.76L64.512 41.76C69.216 41.76 73.008 41.52 75.888 41.04L75.888 44.496C75.6 45.552 75.456 46.416 75.456 47.088L75.456 53.856C79.3213 49.728 82.22 46.896 84.152 45.36C87.9213 42.48 91.5934 41.04 95.168 41.04C101.835 41.04 107.392 43.44 111.839 48.24L111.839 48.24ZM319.055 48.24C324.176 53.712 326.736 61.584 326.736 71.856C326.736 78.288 325.968 83.76 324.432 88.272C320.496 99.312 312.96 106.512 301.824 109.872C298.464 110.928 294.624 111.456 290.304 111.456C287.136 111.456 284.592 111.36 282.672 111.168C282.672 125.856 283.632 133.632 285.552 134.496L284.976 135.36C283.728 135.168 282.384 135.072 280.944 135.072L277.632 135.072C274.944 135.072 272.4 135.504 270 136.368C270.384 135.024 270.672 133.44 270.864 131.616C271.248 127.776 271.44 120.816 271.44 110.736L271.44 89.712C271.44 75.984 271.392 67.824 271.296 65.232C270.912 53.136 269.76 45.312 267.84 41.76L271.728 41.76C276.432 41.76 280.224 41.52 283.104 41.04L283.104 44.496C282.816 45.552 282.672 46.416 282.672 47.088L282.672 53.856C286.537 49.728 289.436 46.896 291.368 45.36C295.137 42.48 298.809 41.04 302.384 41.04C309.051 41.04 314.608 43.44 319.055 48.24L319.055 48.24ZM183.168 67.968C183.168 50.112 174.336 41.184 156.672 41.184C146.112 41.184 138.048 45.264 132.48 53.424C127.584 60.528 125.136 69.456 125.136 80.208C125.136 89.52 127.776 97.2 133.056 103.248C138.048 109.104 144.624 112.032 152.784 112.032C160.56 112.032 167.664 107.184 174.096 97.488C180.144 88.368 183.168 78.528 183.168 67.968L183.168 67.968ZM256.896 42.3338C256.512 43.1963 256.176 47.7473 255.888 55.9868C255.696 62.5013 255.6 68.1533 255.6 72.9428L255.6 75.674C255.6 84.9667 255.792 92.0557 256.176 96.941C256.368 100.103 256.608 102.69 256.896 104.702C257.568 108.438 258.432 110.689 259.488 111.456L243.792 111.456C244.56 105.78 245.04 98.2763 245.232 88.945L245.232 73.94C245.232 64.8001 244.992 57.9217 244.512 53.3048C243.936 47.6288 242.688 44.0213 240.768 42.4823L241.2 41.616L256.176 41.616L256.896 42.3338L256.896 42.3338ZM171.216 76.32C171.216 86.784 169.92 94.032 167.328 98.064C165.312 101.136 162.048 102.672 157.536 102.672C152.64 102.672 148.08 99.984 143.856 94.608C139.248 88.848 136.944 82.224 136.944 74.736C136.944 60.4853 139.928 51.7435 145.896 48.5108C147.647 47.5623 149.655 47.088 151.92 47.088C160.848 47.088 166.8 52.416 169.776 63.072C170.736 66.816 171.216 71.232 171.216 76.32L171.216 76.32ZM102.384 99.792C106.224 95.088 108.144 88.416 108.144 79.776C108.144 74.784 107.52 70.56 106.272 67.104C102.816 57.408 96.624 52.56 87.696 52.56C83.76 52.56 79.872 55.44 76.032 61.2C75.84 61.488 75.744 62.016 75.744 62.784C75.552 65.28 75.456 67.44 75.456 69.264L75.456 101.376C75.744 101.952 76.32 102.528 77.184 103.104C79.872 105.216 83.664 106.272 88.56 106.272L88.848 106.272C94.32 106.272 98.832 104.112 102.384 99.792L102.384 99.792ZM309.6 99.792C313.44 95.088 315.36 88.416 315.36 79.776C315.36 74.784 314.736 70.56 313.488 67.104C310.032 57.408 303.84 52.56 294.912 52.56C290.976 52.56 287.088 55.44 283.248 61.2C283.056 61.488 282.96 62.016 282.96 62.784C282.768 65.28 282.672 67.44 282.672 69.264L282.672 101.376C282.96 101.952 283.536 102.528 284.4 103.104C287.088 105.216 290.88 106.272 295.776 106.272L296.064 106.272C301.536 106.272 306.048 104.112 309.6 99.792L309.6 99.792Z" id="Shape" fill="#000000" fill-rule="evenodd" stroke="none" />
    </g>
  </g>
</svg>